<svg xmlns="http://www.w3.org/2000/svg" viewBox="0 0 128 128" width="128" height="128">
  <defs>
    <linearGradient id="eye1" x1="0%" y1="0%" x2="100%" y2="100%">
      <stop offset="0%" style="stop-color:#f59e0b;stop-opacity:1" />
      <stop offset="100%" style="stop-color:#ec4899;stop-opacity:1" />
    </linearGradient>
    <filter id="eyeShadow" x="-20%" y="-20%" width="140%" height="140%">
      <feDropShadow dx="0" dy="4" stdDeviation="6" flood-color="#f59e0b" flood-opacity="0.3"/>
    </filter>
  </defs>
  <!-- Eye shape -->
  <path d="M16 64 C16 64 32 28 64 28 C96 28 112 64 112 64 C112 64 96 100 64 100 C32 100 16 64 16 64 Z" fill="url(#eye1)" filter="url(#eyeShadow)"/>
  <!-- Iris -->
  <circle cx="64" cy="64" r="22" fill="rgba(0,0,0,0.4)"/>
  <circle cx="64" cy="64" r="16" fill="rgba(0,0,0,0.2)"/>
  <!-- Pupil -->
  <circle cx="64" cy="64" r="8" fill="#0a0a1a"/>
  <!-- AI scanning lines -->
  <line x1="40" y1="45" x2="88" y2="45" stroke="rgba(255,255,255,0.5)" stroke-width="1"/>
  <line x1="36" y1="55" x2="92" y2="55" stroke="rgba(255,255,255,0.4)" stroke-width="1"/>
  <line x1="34" y1="64" x2="94" y2="64" stroke="rgba(255,255,255,0.3)" stroke-width="1"/>
  <line x1="36" y1="73" x2="92" y2="73" stroke="rgba(255,255,255,0.4)" stroke-width="1"/>
  <line x1="40" y1="83" x2="88" y2="83" stroke="rgba(255,255,255,0.5)" stroke-width="1"/>
  <!-- Reflection -->
  <circle cx="56" cy="56" r="5" fill="rgba(255,255,255,0.8)"/>
  <circle cx="70" cy="72" r="2" fill="rgba(255,255,255,0.4)"/>
  <!-- Corner brackets -->
  <path d="M24 36 L24 28 L32 28" fill="none" stroke="white" stroke-width="2" opacity="0.6"/>
  <path d="M104 36 L104 28 L96 28" fill="none" stroke="white" stroke-width="2" opacity="0.6"/>
  <path d="M24 92 L24 100 L32 100" fill="none" stroke="white" stroke-width="2" opacity="0.6"/>
  <path d="M104 92 L104 100 L96 100" fill="none" stroke="white" stroke-width="2" opacity="0.6"/>
</svg>
