<svg xmlns="http://www.w3.org/2000/svg" viewBox="0 0 128 128" width="128" height="128">
  <defs>
    <linearGradient id="data1" x1="0%" y1="0%" x2="100%" y2="100%">
      <stop offset="0%" style="stop-color:#10b981;stop-opacity:1" />
      <stop offset="100%" style="stop-color:#06b6d4;stop-opacity:1" />
    </linearGradient>
    <filter id="dataShadow" x="-20%" y="-20%" width="140%" height="140%">
      <feDropShadow dx="0" dy="4" stdDeviation="6" flood-color="#10b981" flood-opacity="0.3"/>
    </filter>
  </defs>
  <!-- Database cylinder -->
  <ellipse cx="64" cy="36" rx="36" ry="12" fill="url(#data1)" filter="url(#dataShadow)"/>
  <path d="M28 36 L28 92 C28 100 40 108 64 108 C88 108 100 100 100 92 L100 36" fill="url(#data1)" opacity="0.85"/>
  <ellipse cx="64" cy="36" rx="36" ry="12" fill="rgba(255,255,255,0.1)"/>
  <!-- Middle disk -->
  <ellipse cx="64" cy="58" rx="36" ry="12" fill="none" stroke="rgba(255,255,255,0.2)" stroke-width="2"/>
  <ellipse cx="64" cy="80" rx="36" ry="12" fill="none" stroke="rgba(255,255,255,0.2)" stroke-width="2"/>
  <!-- Bottom -->
  <path d="M28 92 C28 100 40 108 64 108 C88 108 100 100 100 92" fill="none" stroke="rgba(255,255,255,0.3)" stroke-width="2"/>
  <!-- AI brain icon on top -->
  <circle cx="64" cy="28" r="8" fill="white" opacity="0.9"/>
  <path d="M59 28 L62 31 L69 24" fill="none" stroke="#10b981" stroke-width="2" stroke-linecap="round"/>
  <!-- Data streams -->
  <line x1="40" y1="116" x2="40" y2="126" stroke="#10b981" stroke-width="2" stroke-dasharray="3,2" opacity="0.6"/>
  <line x1="64" y1="116" x2="64" y2="128" stroke="#10b981" stroke-width="2" stroke-dasharray="3,2" opacity="0.6"/>
  <line x1="88" y1="116" x2="88" y2="126" stroke="#10b981" stroke-width="2" stroke-dasharray="3,2" opacity="0.6"/>
  <!-- Highlight -->
  <ellipse cx="50" cy="44" rx="10" ry="5" fill="rgba(255,255,255,0.15)" transform="rotate(-20 50 44)"/>
</svg>
