<svg xmlns="http://www.w3.org/2000/svg" width="800" height="450" viewBox="0 0 800 450">
  <defs>
    <linearGradient id="bg" x1="0%" y1="0%" x2="100%" y2="100%">
      <stop offset="0%" style="stop-color:#0f1a0f"/>
      <stop offset="100%" style="stop-color:#1a2e1a"/>
    </linearGradient>
    <radialGradient id="glow" cx="50%" cy="40%" r="60%">
      <stop offset="0%" style="stop-color:#22c55e;stop-opacity:0.15"/>
      <stop offset="100%" style="stop-color:#22c55e;stop-opacity:0"/>
    </radialGradient>
    <filter id="shadow" x="-5%" y="-5%" width="110%" height="110%">
      <feDropShadow dx="0" dy="4" stdDeviation="8" flood-color="#000" flood-opacity="0.4"/>
    </filter>
  </defs>
  <rect width="800" height="450" fill="url(#bg)" rx="8"/>
  <rect width="800" height="450" fill="url(#glow)"/>
  <g opacity="0.025" stroke="#fff" stroke-width="0.5">
    <line x1="0" y1="0" x2="800" y2="0"/><line x1="0" y1="75" x2="800" y2="75"/>
    <line x1="0" y1="150" x2="800" y2="150"/><line x1="0" y1="225" x2="800" y2="225"/>
    <line x1="0" y1="300" x2="800" y2="300"/><line x1="0" y1="375" x2="800" y2="375"/>
    <line x1="0" y1="450" x2="800" y2="450"/>
    <line x1="0" y1="0" x2="0" y2="450"/><line x1="100" y1="0" x2="100" y2="450"/>
    <line x1="200" y1="0" x2="200" y2="450"/><line x1="300" y1="0" x2="300" y2="450"/>
    <line x1="400" y1="0" x2="400" y2="450"/><line x1="500" y1="0" x2="500" y2="450"/>
    <line x1="600" y1="0" x2="600" y2="450"/><line x1="700" y1="0" x2="700" y2="450"/>
  </g>
  <g transform="translate(55, 70)" filter="url(#shadow)">
    <circle cx="75" cy="75" r="75" fill="#22c55e" opacity="0.1"/>
  </g>
  <g transform="translate(55, 70)"><circle cx="75" cy="75" r="40" fill="#22c55e" opacity="0.15"/><rect x="55" y="55" width="40" height="30" rx="5" fill="#22c55e" opacity="0.3"/><circle cx="75" cy="65" r="8" fill="#22c55e"/><rect x="60" y="90" width="30" height="4" rx="2" fill="#22c55e" opacity="0.4"/></g>
  <text x="190" y="120" font-family="system-ui,-apple-system,sans-serif" font-size="32" font-weight="800" fill="#fff" letter-spacing="-0.5">DIY Assistent</text>
  <rect x="40" y="385" width="720" height="3" rx="1.5" fill="#22c55e" opacity="0.4"/>
  <rect x="40" y="395" width="80" height="28" rx="14" fill="#22c55e" opacity="0.2"/>
  <text x="80" y="414" text-anchor="middle" font-family="system-ui,-apple-system,sans-serif" font-size="12" font-weight="700" fill="#22c55e" text-transform="uppercase" letter-spacing="1">DIY</text>
  <circle cx="680" cy="380" r="100" fill="#22c55e" opacity="0.02"/>
</svg>