<svg xmlns="http://www.w3.org/2000/svg" width="800" height="450" viewBox="0 0 800 450">
  <defs>
    <linearGradient id="bg" x1="0%" y1="0%" x2="100%" y2="100%">
      <stop offset="0%" style="stop-color:#2e1a0a"/>
      <stop offset="100%" style="stop-color:#3e2a0f"/>
    </linearGradient>
    <radialGradient id="glow" cx="50%" cy="40%" r="60%">
      <stop offset="0%" style="stop-color:#f59e0b;stop-opacity:0.15"/>
      <stop offset="100%" style="stop-color:#f59e0b;stop-opacity:0"/>
    </radialGradient>
    <filter id="shadow" x="-5%" y="-5%" width="110%" height="110%">
      <feDropShadow dx="0" dy="4" stdDeviation="8" flood-color="#000" flood-opacity="0.4"/>
    </filter>
  </defs>
  <rect width="800" height="450" fill="url(#bg)" rx="8"/>
  <rect width="800" height="450" fill="url(#glow)"/>
  <g opacity="0.025" stroke="#fff" stroke-width="0.5">
    <line x1="0" y1="0" x2="800" y2="0"/><line x1="0" y1="75" x2="800" y2="75"/>
    <line x1="0" y1="150" x2="800" y2="150"/><line x1="0" y1="225" x2="800" y2="225"/>
    <line x1="0" y1="300" x2="800" y2="300"/><line x1="0" y1="375" x2="800" y2="375"/>
    <line x1="0" y1="450" x2="800" y2="450"/>
    <line x1="0" y1="0" x2="0" y2="450"/><line x1="100" y1="0" x2="100" y2="450"/>
    <line x1="200" y1="0" x2="200" y2="450"/><line x1="300" y1="0" x2="300" y2="450"/>
    <line x1="400" y1="0" x2="400" y2="450"/><line x1="500" y1="0" x2="500" y2="450"/>
    <line x1="600" y1="0" x2="600" y2="450"/><line x1="700" y1="0" x2="700" y2="450"/>
  </g>
  <g transform="translate(55, 70)" filter="url(#shadow)">
    <circle cx="75" cy="75" r="75" fill="#f59e0b" opacity="0.1"/>
  </g>
  <g transform="translate(55, 70)"><rect x="45" y="35" width="60" height="60" rx="6" fill="#f59e0b" opacity="0.12"/><rect x="45" y="35" width="60" height="60" rx="6" fill="none" stroke="#f59e0b" stroke-width="2" opacity="0.4"/><rect x="55" y="45" width="40" height="40" rx="3" fill="#f59e0b" opacity="0.2"/><line x1="45" y1="50" x2="35" y2="50" stroke="#f59e0b" stroke-width="2" opacity="0.3"/><line x1="45" y1="65" x2="35" y2="65" stroke="#f59e0b" stroke-width="2" opacity="0.3"/><line x1="45" y1="80" x2="35" y2="80" stroke="#f59e0b" stroke-width="2" opacity="0.3"/><line x1="105" y1="50" x2="115" y2="50" stroke="#f59e0b" stroke-width="2" opacity="0.3"/><line x1="105" y1="65" x2="115" y2="65" stroke="#f59e0b" stroke-width="2" opacity="0.3"/><line x1="105" y1="80" x2="115" y2="80" stroke="#f59e0b" stroke-width="2" opacity="0.3"/></g>
  <text x="190" y="120" font-family="system-ui,-apple-system,sans-serif" font-size="32" font-weight="800" fill="#fff" letter-spacing="-0.5">KI-Chip Morinica</text>
  <rect x="40" y="385" width="720" height="3" rx="1.5" fill="#f59e0b" opacity="0.4"/>
  <rect x="40" y="395" width="80" height="28" rx="14" fill="#f59e0b" opacity="0.2"/>
  <text x="80" y="414" text-anchor="middle" font-family="system-ui,-apple-system,sans-serif" font-size="12" font-weight="700" fill="#f59e0b" text-transform="uppercase" letter-spacing="1">NEWS</text>
  <circle cx="700" cy="350" r="100" fill="#f59e0b" opacity="0.03"/>
</svg>